<svg width="557" height="724" xmlns="http://www.w3.org/2000/svg" xmlns:xlink="http://www.w3.org/1999/xlink" xml:space="preserve" overflow="hidden"><defs><clipPath id="clip0"><rect x="0" y="0" width="557" height="724"/></clipPath></defs><g clip-path="url(#clip0)"><text fill="#EEEEEE" font-family="Arial,Arial_MSFontService,sans-serif" font-weight="400" font-size="24" transform="matrix(0.730013 0 0 0.729839 75.4692 15)">UNREGISTERED</text><text fill="#EEEEEE" font-family="Arial,Arial_MSFontService,sans-serif" font-weight="400" font-size="24" transform="matrix(0.730013 0 0 0.729839 75.4692 37)">UNREGISTERED</text><text fill="#EEEEEE" font-family="Arial,Arial_MSFontService,sans-serif" font-weight="400" font-size="24" transform="matrix(0.730013 0 0 0.729839 75.4692 59)">UNREGISTERED</text><text fill="#EEEEEE" font-family="Arial,Arial_MSFontService,sans-serif" font-weight="400" font-size="24" transform="matrix(0.730013 0 0 0.729839 75.4692 81)">UNREGISTERED</text><text fill="#EEEEEE" font-family="Arial,Arial_MSFontService,sans-serif" font-weight="400" font-size="24" transform="matrix(0.730013 0 0 0.729839 75.4692 103)">UNREGISTERED</text><text fill="#EEEEEE" font-family="Arial,Arial_MSFontService,sans-serif" font-weight="400" font-size="24" transform="matrix(0.730013 0 0 0.729839 75.4692 124)">UNREGISTERED</text><text fill="#EEEEEE" font-family="Arial,Arial_MSFontService,sans-serif" font-weight="400" font-size="24" transform="matrix(0.730013 0 0 0.729839 75.4692 146)">UNREGISTERED</text><text fill="#EEEEEE" font-family="Arial,Arial_MSFontService,sans-serif" font-weight="400" font-size="24" transform="matrix(0.730013 0 0 0.729839 75.4692 168)">UNREGISTERED</text><text fill="#EEEEEE" font-family="Arial,Arial_MSFontService,sans-serif" font-weight="400" font-size="24" transform="matrix(0.730013 0 0 0.729839 75.4692 190)">UNREGISTERED</text><text fill="#EEEEEE" font-family="Arial,Arial_MSFontService,sans-serif" font-weight="400" font-size="24" transform="matrix(0.730013 0 0 0.729839 75.4692 212)">UNREGISTERED</text><text fill="#EEEEEE" font-family="Arial,Arial_MSFontService,sans-serif" font-weight="400" font-size="24" transform="matrix(0.730013 0 0 0.729839 75.4692 234)">UNREGISTERED</text><text fill="#EEEEEE" font-family="Arial,Arial_MSFontService,sans-serif" font-weight="400" font-size="24" transform="matrix(0.730013 0 0 0.729839 75.4692 256)">UNREGISTERED</text><text fill="#EEEEEE" font-family="Arial,Arial_MSFontService,sans-serif" font-weight="400" font-size="24" transform="matrix(0.730013 0 0 0.729839 75.4692 278)">UNREGISTERED</text><text fill="#EEEEEE" font-family="Arial,Arial_MSFontService,sans-serif" font-weight="400" font-size="24" transform="matrix(0.730013 0 0 0.729839 75.4692 300)">UNREGISTERED</text><text fill="#EEEEEE" font-family="Arial,Arial_MSFontService,sans-serif" font-weight="400" font-size="24" transform="matrix(0.730013 0 0 0.729839 75.4692 321)">UNREGISTERED</text><text fill="#EEEEEE" font-family="Arial,Arial_MSFontService,sans-serif" font-weight="400" font-size="24" transform="matrix(0.730013 0 0 0.729839 75.4692 343)">UNREGISTERED</text><text fill="#EEEEEE" font-family="Arial,Arial_MSFontService,sans-serif" font-weight="400" font-size="24" transform="matrix(0.730013 0 0 0.729839 75.4692 365)">UNREGISTERED</text><text fill="#EEEEEE" font-family="Arial,Arial_MSFontService,sans-serif" font-weight="400" font-size="24" transform="matrix(0.730013 0 0 0.729839 75.4692 387)">UNREGISTERED</text><text fill="#EEEEEE" font-family="Arial,Arial_MSFontService,sans-serif" font-weight="400" font-size="24" transform="matrix(0.730013 0 0 0.729839 75.4692 409)">UNREGISTERED</text><text fill="#EEEEEE" font-family="Arial,Arial_MSFontService,sans-serif" font-weight="400" font-size="24" transform="matrix(0.730013 0 0 0.729839 75.4692 431)">UNREGISTERED</text><text fill="#EEEEEE" font-family="Arial,Arial_MSFontService,sans-serif" font-weight="400" font-size="24" transform="matrix(0.730013 0 0 0.729839 75.4692 453)">UNREGISTERED</text><text fill="#EEEEEE" font-family="Arial,Arial_MSFontService,sans-serif" font-weight="400" font-size="24" transform="matrix(0.730013 0 0 0.729839 75.4692 475)">UNREGISTERED</text><text fill="#EEEEEE" font-family="Arial,Arial_MSFontService,sans-serif" font-weight="400" font-size="24" transform="matrix(0.730013 0 0 0.729839 75.4692 497)">UNREGISTERED</text><text fill="#EEEEEE" font-family="Arial,Arial_MSFontService,sans-serif" font-weight="400" font-size="24" transform="matrix(0.730013 0 0 0.729839 75.4692 519)">UNREGISTERED</text><text fill="#EEEEEE" font-family="Arial,Arial_MSFontService,sans-serif" font-weight="400" font-size="24" transform="matrix(0.730013 0 0 0.729839 75.4692 540)">UNREGISTERED</text><text fill="#EEEEEE" font-family="Arial,Arial_MSFontService,sans-serif" font-weight="400" font-size="24" transform="matrix(0.730013 0 0 0.729839 75.4692 562)">UNREGISTERED</text><text fill="#EEEEEE" font-family="Arial,Arial_MSFontService,sans-serif" font-weight="400" font-size="24" transform="matrix(0.730013 0 0 0.729839 75.4692 584)">UNREGISTERED</text><text fill="#EEEEEE" font-family="Arial,Arial_MSFontService,sans-serif" font-weight="400" font-size="24" transform="matrix(0.730013 0 0 0.729839 75.4692 606)">UNREGISTERED</text><text fill="#EEEEEE" font-family="Arial,Arial_MSFontService,sans-serif" font-weight="400" font-size="24" transform="matrix(0.730013 0 0 0.729839 75.4692 628)">UNREGISTERED</text><text fill="#EEEEEE" font-family="Arial,Arial_MSFontService,sans-serif" font-weight="400" font-size="24" transform="matrix(0.730013 0 0 0.729839 75.4692 650)">UNREGISTERED</text><text fill="#EEEEEE" font-family="Arial,Arial_MSFontService,sans-serif" font-weight="400" font-size="24" transform="matrix(0.730013 0 0 0.729839 75.4692 672)">UNREGISTERED</text><text fill="#EEEEEE" font-family="Arial,Arial_MSFontService,sans-serif" font-weight="400" font-size="24" transform="matrix(0.730013 0 0 0.729839 75.4692 694)">UNREGISTERED</text><text fill="#EEEEEE" font-family="Arial,Arial_MSFontService,sans-serif" font-weight="400" font-size="24" transform="matrix(0.730013 0 0 0.729839 75.4692 716)">UNREGISTERED</text><text fill="#EEEEEE" font-family="Arial,Arial_MSFontService,sans-serif" font-weight="400" font-size="24" transform="matrix(0.730013 0 0 0.729839 221.472 15)">UNREGISTERED</text><text fill="#EEEEEE" font-family="Arial,Arial_MSFontService,sans-serif" font-weight="400" font-size="24" transform="matrix(0.730013 0 0 0.729839 221.472 37)">UNREGISTERED</text><text fill="#EEEEEE" font-family="Arial,Arial_MSFontService,sans-serif" font-weight="400" font-size="24" transform="matrix(0.730013 0 0 0.729839 221.472 59)">UNREGISTERED</text><text fill="#EEEEEE" font-family="Arial,Arial_MSFontService,sans-serif" font-weight="400" font-size="24" transform="matrix(0.730013 0 0 0.729839 221.472 81)">UNREGISTERED</text><text fill="#EEEEEE" font-family="Arial,Arial_MSFontService,sans-serif" font-weight="400" font-size="24" transform="matrix(0.730013 0 0 0.729839 221.472 103)">UNREGISTERED</text><text fill="#EEEEEE" font-family="Arial,Arial_MSFontService,sans-serif" font-weight="400" font-size="24" transform="matrix(0.730013 0 0 0.729839 221.472 124)">UNREGISTERED</text><text fill="#EEEEEE" font-family="Arial,Arial_MSFontService,sans-serif" font-weight="400" font-size="24" transform="matrix(0.730013 0 0 0.729839 221.472 146)">UNREGISTERED</text><text fill="#EEEEEE" font-family="Arial,Arial_MSFontService,sans-serif" font-weight="400" font-size="24" transform="matrix(0.730013 0 0 0.729839 221.472 168)">UNREGISTERED</text><text fill="#EEEEEE" font-family="Arial,Arial_MSFontService,sans-serif" font-weight="400" font-size="24" transform="matrix(0.730013 0 0 0.729839 221.472 190)">UNREGISTERED</text><text fill="#EEEEEE" font-family="Arial,Arial_MSFontService,sans-serif" font-weight="400" font-size="24" transform="matrix(0.730013 0 0 0.729839 221.472 212)">UNREGISTERED</text><text fill="#EEEEEE" font-family="Arial,Arial_MSFontService,sans-serif" font-weight="400" font-size="24" transform="matrix(0.730013 0 0 0.729839 221.472 234)">UNREGISTERED</text><text fill="#EEEEEE" font-family="Arial,Arial_MSFontService,sans-serif" font-weight="400" font-size="24" transform="matrix(0.730013 0 0 0.729839 221.472 256)">UNREGISTERED</text><text fill="#EEEEEE" font-family="Arial,Arial_MSFontService,sans-serif" font-weight="400" font-size="24" transform="matrix(0.730013 0 0 0.729839 221.472 278)">UNREGISTERED</text><text fill="#EEEEEE" font-family="Arial,Arial_MSFontService,sans-serif" font-weight="400" font-size="24" transform="matrix(0.730013 0 0 0.729839 221.472 300)">UNREGISTERED</text><text fill="#EEEEEE" font-family="Arial,Arial_MSFontService,sans-serif" font-weight="400" font-size="24" transform="matrix(0.730013 0 0 0.729839 221.472 321)">UNREGISTERED</text><text fill="#EEEEEE" font-family="Arial,Arial_MSFontService,sans-serif" font-weight="400" font-size="24" transform="matrix(0.730013 0 0 0.729839 221.472 343)">UNREGISTERED</text><text fill="#EEEEEE" font-family="Arial,Arial_MSFontService,sans-serif" font-weight="400" font-size="24" transform="matrix(0.730013 0 0 0.729839 221.472 365)">UNREGISTERED</text><text fill="#EEEEEE" font-family="Arial,Arial_MSFontService,sans-serif" font-weight="400" font-size="24" transform="matrix(0.730013 0 0 0.729839 221.472 387)">UNREGISTERED</text><text fill="#EEEEEE" font-family="Arial,Arial_MSFontService,sans-serif" font-weight="400" font-size="24" transform="matrix(0.730013 0 0 0.729839 221.472 409)">UNREGISTERED</text><text fill="#EEEEEE" font-family="Arial,Arial_MSFontService,sans-serif" font-weight="400" font-size="24" transform="matrix(0.730013 0 0 0.729839 221.472 431)">UNREGISTERED</text><text fill="#EEEEEE" font-family="Arial,Arial_MSFontService,sans-serif" font-weight="400" font-size="24" transform="matrix(0.730013 0 0 0.729839 221.472 453)">UNREGISTERED</text><text fill="#EEEEEE" font-family="Arial,Arial_MSFontService,sans-serif" font-weight="400" font-size="24" transform="matrix(0.730013 0 0 0.729839 221.472 475)">UNREGISTERED</text><text fill="#EEEEEE" font-family="Arial,Arial_MSFontService,sans-serif" font-weight="400" font-size="24" transform="matrix(0.730013 0 0 0.729839 221.472 497)">UNREGISTERED</text><text fill="#EEEEEE" font-family="Arial,Arial_MSFontService,sans-serif" font-weight="400" font-size="24" transform="matrix(0.730013 0 0 0.729839 221.472 519)">UNREGISTERED</text><text fill="#EEEEEE" font-family="Arial,Arial_MSFontService,sans-serif" font-weight="400" font-size="24" transform="matrix(0.730013 0 0 0.729839 221.472 540)">UNREGISTERED</text><text fill="#EEEEEE" font-family="Arial,Arial_MSFontService,sans-serif" font-weight="400" font-size="24" transform="matrix(0.730013 0 0 0.729839 221.472 562)">UNREGISTERED</text><text fill="#EEEEEE" font-family="Arial,Arial_MSFontService,sans-serif" font-weight="400" font-size="24" transform="matrix(0.730013 0 0 0.729839 221.472 584)">UNREGISTERED</text><text fill="#EEEEEE" font-family="Arial,Arial_MSFontService,sans-serif" font-weight="400" font-size="24" transform="matrix(0.730013 0 0 0.729839 221.472 606)">UNREGISTERED</text><text fill="#EEEEEE" font-family="Arial,Arial_MSFontService,sans-serif" font-weight="400" font-size="24" transform="matrix(0.730013 0 0 0.729839 221.472 628)">UNREGISTERED</text><text fill="#EEEEEE" font-family="Arial,Arial_MSFontService,sans-serif" font-weight="400" font-size="24" transform="matrix(0.730013 0 0 0.729839 221.472 650)">UNREGISTERED</text><text fill="#EEEEEE" font-family="Arial,Arial_MSFontService,sans-serif" font-weight="400" font-size="24" transform="matrix(0.730013 0 0 0.729839 221.472 672)">UNREGISTERED</text><text fill="#EEEEEE" font-family="Arial,Arial_MSFontService,sans-serif" font-weight="400" font-size="24" transform="matrix(0.730013 0 0 0.729839 221.472 694)">UNREGISTERED</text><text fill="#EEEEEE" font-family="Arial,Arial_MSFontService,sans-serif" font-weight="400" font-size="24" transform="matrix(0.730013 0 0 0.729839 221.472 716)">UNREGISTERED</text><path d="M186.109 156.915 606.496 156.915 606.496 875.077 186.109 875.077Z" fill="#C0C0C0" fill-opacity="0.2" transform="matrix(1.00024 0 0 1 -104.114 -151.442)"/><path d="M181 151.806 601.387 151.806 601.387 869.968 181 869.968Z" fill="#FFF0F0" transform="matrix(1.00024 0 0 1 -104.114 -151.442)"/><path d="M181 151.806 601.387 151.806 601.387 869.968 181 869.968Z" stroke="#000000" stroke-width="0.729839" stroke-miterlimit="10" fill="none" transform="matrix(1.00024 0 0 1 -104.114 -151.442)"/><text font-family="Arial,Arial_MSFontService,sans-serif" font-weight="700" font-size="13" transform="matrix(0.730013 0 0 0.729839 234.247 14)">Aplicación de la OFMA</text><path d="M203.625 186.109 583.141 186.109 583.141 472.206 203.625 472.206Z" fill="#C0C0C0" fill-opacity="0.2" transform="matrix(1.00024 0 0 1 -104.114 -151.442)"/><path d="M198.516 181 578.032 181 578.032 467.097 198.516 467.097Z" fill="#F0E8E2" transform="matrix(1.00024 0 0 1 -104.114 -151.442)"/><path d="M198.516 181 578.032 181 578.032 467.097 198.516 467.097Z" stroke="#000000" stroke-width="0.729839" stroke-miterlimit="10" fill="none" transform="matrix(1.00024 0 0 1 -104.114 -151.442)"/><text font-family="Arial,Arial_MSFontService,sans-serif" font-weight="700" font-size="13" transform="matrix(0.730013 0 0 0.729839 245.562 43)">Aplicación móvil</text><path d="M203.625 489.722 583.141 489.722 583.141 758.302 203.625 758.302Z" fill="#C0C0C0" fill-opacity="0.2" transform="matrix(1.00024 0 0 1 -104.114 -151.442)"/><path d="M198.516 484.613 578.032 484.613 578.032 753.194 198.516 753.194Z" fill="#F0E8E2" transform="matrix(1.00024 0 0 1 -104.114 -151.442)"/><path d="M198.516 484.613 578.032 484.613 578.032 753.194 198.516 753.194Z" stroke="#000000" stroke-width="0.729839" stroke-miterlimit="10" fill="none" transform="matrix(1.00024 0 0 1 -104.114 -151.442)"/><text font-family="Arial,Arial_MSFontService,sans-serif" font-weight="700" font-size="13" transform="matrix(0.730013 0 0 0.729839 234.612 346)">Panel de control web</text><path d="M203.625 775.819 583.141 775.819 583.141 857.56 203.625 857.56Z" fill="#C0C0C0" fill-opacity="0.2" transform="matrix(1.00024 0 0 1 -104.114 -151.442)"/><path d="M198.516 770.71 578.032 770.71 578.032 852.452 198.516 852.452Z" fill="#F0E8E2" transform="matrix(1.00024 0 0 1 -104.114 -151.442)"/><path d="M198.516 770.71 578.032 770.71 578.032 852.452 198.516 852.452Z" stroke="#000000" stroke-width="0.729839" stroke-miterlimit="10" fill="none" transform="matrix(1.00024 0 0 1 -104.114 -151.442)"/><text font-family="Arial,Arial_MSFontService,sans-serif" font-weight="700" font-size="13" transform="matrix(0.730013 0 0 0.729839 264.543 632)">Servidor</text><path d="M131.24 293.162C131.24 289.663 134.076 286.827 137.575 286.827 141.073 286.827 143.909 289.663 143.909 293.162 143.909 296.66 141.073 299.497 137.575 299.497 134.076 299.497 131.24 296.66 131.24 293.162Z" fill="#FFFFFF" transform="matrix(1.00024 0 0 1 -104.114 -151.442)"/><path d="M131.24 293.162C131.24 289.663 134.076 286.827 137.575 286.827 141.073 286.827 143.909 289.663 143.909 293.162 143.909 296.66 141.073 299.497 137.575 299.497 134.076 299.497 131.24 296.66 131.24 293.162Z" stroke="#000000" stroke-width="0.729839" stroke-miterlimit="10" fill="none" transform="matrix(1.00024 0 0 1 -104.114 -151.442)"/><path d="M137.575 299.497 137.575 312.108" stroke="#000000" stroke-width="0.729839" stroke-miterlimit="10" fill="none" transform="matrix(1.00024 0 0 1 -104.114 -151.442)"/><path d="M130.867 304.226 144.282 304.226" stroke="#000000" stroke-width="0.729839" stroke-miterlimit="10" fill="none" transform="matrix(1.00024 0 0 1 -104.114 -151.442)"/><path d="M137.575 312.108 128.259 324.778" stroke="#000000" stroke-width="0.729839" stroke-miterlimit="10" fill="none" transform="matrix(1.00024 0 0 1 -104.114 -151.442)"/><path d="M137.575 312.108 146.89 324.778" stroke="#000000" stroke-width="0.729839" stroke-miterlimit="10" fill="none" transform="matrix(1.00024 0 0 1 -104.114 -151.442)"/><text font-family="Arial,Arial_MSFontService,sans-serif" font-weight="700" font-size="13" transform="matrix(0.730013 0 0 0.729839 15.9731 187)">Usuario</text><path d="M653.075 263.968C653.075 260.469 655.911 257.633 659.409 257.633 662.907 257.633 665.744 260.469 665.744 263.968 665.744 267.467 662.907 270.303 659.409 270.303 655.911 270.303 653.075 267.467 653.075 263.968Z" fill="#FFFFFF" transform="matrix(1.00024 0 0 1 -127.474 -151.442)"/><path d="M653.075 263.968C653.075 260.469 655.911 257.633 659.409 257.633 662.907 257.633 665.744 260.469 665.744 263.968 665.744 267.467 662.907 270.303 659.409 270.303 655.911 270.303 653.075 267.467 653.075 263.968Z" stroke="#000000" stroke-width="0.729839" stroke-miterlimit="10" fill="none" transform="matrix(1.00024 0 0 1 -127.474 -151.442)"/><path d="M659.409 270.303 659.409 282.915" stroke="#000000" stroke-width="0.729839" stroke-miterlimit="10" fill="none" transform="matrix(1.00024 0 0 1 -127.474 -151.442)"/><path d="M652.702 275.032 666.117 275.032" stroke="#000000" stroke-width="0.729839" stroke-miterlimit="10" fill="none" transform="matrix(1.00024 0 0 1 -127.474 -151.442)"/><path d="M659.409 282.915 650.094 295.585" stroke="#000000" stroke-width="0.729839" stroke-miterlimit="10" fill="none" transform="matrix(1.00024 0 0 1 -127.474 -151.442)"/><path d="M659.409 282.915 668.725 295.585" stroke="#000000" stroke-width="0.729839" stroke-miterlimit="10" fill="none" transform="matrix(1.00024 0 0 1 -127.474 -151.442)"/><text font-family="Arial,Arial_MSFontService,sans-serif" font-weight="700" font-size="13" transform="matrix(0.730013 0 0 0.729839 504.352 158)">Pasarela de</text><text font-family="Arial,Arial_MSFontService,sans-serif" font-weight="700" font-size="13" transform="matrix(0.730013 0 0 0.729839 518.222 166)">pagos</text><path d="M128.686 579.258C128.686 575.76 131.522 572.923 135.02 572.923 138.518 572.923 141.354 575.76 141.354 579.258 141.354 582.757 138.518 585.593 135.02 585.593 131.522 585.593 128.686 582.757 128.686 579.258Z" fill="#FFFFFF" transform="matrix(1.00024 0 0 1 -104.114 -151.442)"/><path d="M128.686 579.258C128.686 575.76 131.522 572.923 135.02 572.923 138.518 572.923 141.354 575.76 141.354 579.258 141.354 582.757 138.518 585.593 135.02 585.593 131.522 585.593 128.686 582.757 128.686 579.258Z" stroke="#000000" stroke-width="0.729839" stroke-miterlimit="10" fill="none" transform="matrix(1.00024 0 0 1 -104.114 -151.442)"/><path d="M135.02 585.593 135.02 598.205" stroke="#000000" stroke-width="0.729839" stroke-miterlimit="10" fill="none" transform="matrix(1.00024 0 0 1 -104.114 -151.442)"/><path d="M128.313 590.323 141.727 590.323" stroke="#000000" stroke-width="0.729839" stroke-miterlimit="10" fill="none" transform="matrix(1.00024 0 0 1 -104.114 -151.442)"/><path d="M135.02 598.205 125.704 610.875" stroke="#000000" stroke-width="0.729839" stroke-miterlimit="10" fill="none" transform="matrix(1.00024 0 0 1 -104.114 -151.442)"/><path d="M135.02 598.205 144.336 610.875" stroke="#000000" stroke-width="0.729839" stroke-miterlimit="10" fill="none" transform="matrix(1.00024 0 0 1 -104.114 -151.442)"/><text font-family="Arial,Arial_MSFontService,sans-serif" font-weight="700" font-size="13" transform="matrix(0.730013 0 0 0.729839 13.7816 469)">Usuario</text><text font-family="Arial,Arial_MSFontService,sans-serif" font-weight="700" font-size="13" transform="matrix(0.730013 0 0 0.729839 -0.818637 481)">administrador</text><path d="M98.7625 783.613C98.7625 780.117 101.599 777.278 105.097 777.278 108.595 777.278 111.431 780.117 111.431 783.613 111.431 787.109 108.595 789.948 105.097 789.948 101.599 789.948 98.7625 787.109 98.7625 783.613Z" fill="#FFFFFF" transform="matrix(1.00024 0 0 1 -68.4687 -143.232)"/><path d="M98.7625 783.613C98.7625 780.117 101.599 777.278 105.097 777.278 108.595 777.278 111.431 780.117 111.431 783.613 111.431 787.109 108.595 789.948 105.097 789.948 101.599 789.948 98.7625 787.109 98.7625 783.613Z" stroke="#000000" stroke-width="0.729839" stroke-miterlimit="10" fill="none" transform="matrix(1.00024 0 0 1 -68.4687 -143.232)"/><path d="M105.097 789.948 105.097 802.56" stroke="#000000" stroke-width="0.729839" stroke-miterlimit="10" fill="none" transform="matrix(1.00024 0 0 1 -68.4687 -143.232)"/><path d="M98.3896 794.678 111.804 794.678" stroke="#000000" stroke-width="0.729839" stroke-miterlimit="10" fill="none" transform="matrix(1.00024 0 0 1 -68.4687 -143.232)"/><path d="M105.097 802.56 95.7811 815.23" stroke="#000000" stroke-width="0.729839" stroke-miterlimit="10" fill="none" transform="matrix(1.00024 0 0 1 -68.4687 -143.232)"/><path d="M105.097 802.56 114.412 815.23" stroke="#000000" stroke-width="0.729839" stroke-miterlimit="10" fill="none" transform="matrix(1.00024 0 0 1 -68.4687 -143.232)"/><text font-family="Arial,Arial_MSFontService,sans-serif" font-weight="700" font-size="13" transform="matrix(0.730013 0 0 0.729839 4.61616 685)">Administrador</text><text font-family="Arial,Arial_MSFontService,sans-serif" font-weight="700" font-size="13" transform="matrix(0.730013 0 0 0.729839 8.63124 694)">de sistemas</text><path d="M209.464 233.548C209.464 226.696 227.926 221.141 250.7 221.141 273.474 221.141 291.935 226.696 291.935 233.548 291.935 240.401 273.474 245.956 250.7 245.956 227.926 245.956 209.464 240.401 209.464 233.548Z" fill="#C0C0C0" fill-opacity="0.2" transform="matrix(1.00024 0 0 1 -104.114 -151.442)"/><path d="M204.355 228.44C204.355 221.587 222.817 216.032 245.591 216.032 268.365 216.032 286.827 221.587 286.827 228.44 286.827 235.292 268.365 240.847 245.591 240.847 222.817 240.847 204.355 235.292 204.355 228.44Z" fill="#FFD8D8" transform="matrix(1.00024 0 0 1 -104.114 -151.442)"/><path d="M204.355 228.44C204.355 221.587 222.817 216.032 245.591 216.032 268.365 216.032 286.827 221.587 286.827 228.44 286.827 235.292 268.365 240.847 245.591 240.847 222.817 240.847 204.355 235.292 204.355 228.44Z" stroke="#000000" stroke-width="0.729839" stroke-miterlimit="10" fill="none" transform="matrix(1.00024 0 0 1 -104.114 -151.442)"/><text font-family="Arial,Arial_MSFontService,sans-serif" font-weight="700" font-size="13" transform="matrix(0.730013 0 0 0.729839 115.62 81)">Registrarse</text><path d="M297.044 233.548C297.044 226.696 322.041 221.141 352.877 221.141 383.713 221.141 408.71 226.696 408.71 233.548 408.71 240.401 383.713 245.956 352.877 245.956 322.041 245.956 297.044 240.401 297.044 233.548Z" fill="#C0C0C0" fill-opacity="0.2" transform="matrix(1.00024 0 0 1 -104.114 -151.442)"/><path d="M291.935 228.44C291.935 221.587 316.932 216.032 347.768 216.032 378.604 216.032 403.601 221.587 403.601 228.44 403.601 235.292 378.604 240.847 347.768 240.847 316.932 240.847 291.935 235.292 291.935 228.44Z" fill="#FFD8D8" transform="matrix(1.00024 0 0 1 -104.114 -151.442)"/><path d="M291.935 228.44C291.935 221.587 316.932 216.032 347.768 216.032 378.604 216.032 403.601 221.587 403.601 228.44 403.601 235.292 378.604 240.847 347.768 240.847 316.932 240.847 291.935 235.292 291.935 228.44Z" stroke="#000000" stroke-width="0.729839" stroke-miterlimit="10" fill="none" transform="matrix(1.00024 0 0 1 -104.114 -151.442)"/><text font-family="Arial,Arial_MSFontService,sans-serif" font-weight="700" font-size="13" transform="matrix(0.730013 0 0 0.729839 207.602 81)">Inicio de sesión</text><path d="M413.819 233.548C413.819 226.696 450.252 221.141 495.196 221.141 540.139 221.141 576.573 226.696 576.573 233.548 576.573 240.401 540.139 245.956 495.196 245.956 450.252 245.956 413.819 240.401 413.819 233.548Z" fill="#C0C0C0" fill-opacity="0.2" transform="matrix(1.00024 0 0 1 -104.114 -151.442)"/><path d="M408.71 228.44C408.71 221.587 445.143 216.032 490.087 216.032 535.03 216.032 571.464 221.587 571.464 228.44 571.464 235.292 535.03 240.847 490.087 240.847 445.143 240.847 408.71 235.292 408.71 228.44Z" fill="#FFD8D8" transform="matrix(1.00024 0 0 1 -104.114 -151.442)"/><path d="M408.71 228.44C408.71 221.587 445.143 216.032 490.087 216.032 535.03 216.032 571.464 221.587 571.464 228.44 571.464 235.292 535.03 240.847 490.087 240.847 445.143 240.847 408.71 235.292 408.71 228.44Z" stroke="#000000" stroke-width="0.729839" stroke-miterlimit="10" fill="none" transform="matrix(1.00024 0 0 1 -104.114 -151.442)"/><text font-family="Arial,Arial_MSFontService,sans-serif" font-weight="700" font-size="13" transform="matrix(0.730013 0 0 0.729839 331.704 81)">Restablecer contraseña</text><path d="M159.105 297.044 228.44 241.577" stroke="#000000" stroke-width="0.729839" stroke-miterlimit="10" fill="none" transform="matrix(1.00024 0 0 1 -104.114 -151.442)"/><path d="M159.105 305.802 315.29 241.577" stroke="#000000" stroke-width="0.729839" stroke-miterlimit="10" fill="none" transform="matrix(1.00024 0 0 1 -104.114 -151.442)"/><path d="M159.105 309.452 435.714 241.577" stroke="#000000" stroke-width="0.729839" stroke-miterlimit="10" fill="none" transform="matrix(1.00024 0 0 1 -104.114 -151.442)"/><path d="M419.657 262.742C419.657 255.889 454.947 250.335 498.48 250.335 542.013 250.335 577.302 255.889 577.302 262.742 577.302 269.594 542.013 275.149 498.48 275.149 454.947 275.149 419.657 269.594 419.657 262.742Z" fill="#C0C0C0" fill-opacity="0.2" transform="matrix(1.00024 0 0 1 -104.114 -151.442)"/><path d="M414.548 257.633C414.548 250.781 449.838 245.226 493.371 245.226 536.904 245.226 572.194 250.781 572.194 257.633 572.194 264.486 536.904 270.04 493.371 270.04 449.838 270.04 414.548 264.486 414.548 257.633Z" fill="#FFD8D8" transform="matrix(1.00024 0 0 1 -104.114 -151.442)"/><path d="M414.548 257.633C414.548 250.781 449.838 245.226 493.371 245.226 536.904 245.226 572.194 250.781 572.194 257.633 572.194 264.486 536.904 270.04 493.371 270.04 449.838 270.04 414.548 264.486 414.548 257.633Z" stroke="#000000" stroke-width="0.729839" stroke-miterlimit="10" fill="none" transform="matrix(1.00024 0 0 1 -104.114 -151.442)"/><text font-family="Arial,Arial_MSFontService,sans-serif" font-weight="700" font-size="13" transform="matrix(0.730013 0 0 0.729839 336.814 110)">Actualizar información</text><path d="M159.105 310.911 413.819 270.04" stroke="#000000" stroke-width="0.729839" stroke-miterlimit="10" fill="none" transform="matrix(1.00024 0 0 1 -104.114 -151.442)"/><path d="M349.593 327.698C349.593 317.218 400.568 308.722 463.448 308.722 526.328 308.722 577.302 317.218 577.302 327.698 577.302 338.177 526.328 346.673 463.448 346.673 400.568 346.673 349.593 338.177 349.593 327.698Z" fill="#C0C0C0" fill-opacity="0.2" transform="matrix(1.00024 0 0 1 -104.114 -151.442)"/><path d="M344.484 322.589C344.484 312.109 395.459 303.613 458.339 303.613 521.219 303.613 572.194 312.109 572.194 322.589 572.194 333.068 521.219 341.565 458.339 341.565 395.459 341.565 344.484 333.068 344.484 322.589Z" fill="#FFE6D8" transform="matrix(1.00024 0 0 1 -104.114 -151.442)"/><path d="M344.484 322.589C344.484 312.109 395.459 303.613 458.339 303.613 521.219 303.613 572.194 312.109 572.194 322.589 572.194 333.068 521.219 341.565 458.339 341.565 395.459 341.565 344.484 333.068 344.484 322.589Z" stroke="#000000" stroke-width="0.729839" stroke-miterlimit="10" fill="none" transform="matrix(1.00024 0 0 1 -104.114 -151.442)"/><text font-family="Arial,Arial_MSFontService,sans-serif" font-weight="700" font-size="13" transform="matrix(0.730013 0 0 0.729839 280.238 170)">Realizar pago con transferencia</text><text font-family="Arial,Arial_MSFontService,sans-serif" font-weight="700" font-size="13" transform="matrix(0.730013 0 0 0.729839 311.628 180)">pago móvil y zelle</text><path d="M159.105 315.29 343.754 319.669" stroke="#000000" stroke-width="0.729839" stroke-miterlimit="10" fill="none" transform="matrix(1.00024 0 0 1 -104.114 -151.442)"/><path d="M402.141 291.935C402.141 285.083 441.352 279.528 489.722 279.528 538.091 279.528 577.302 285.083 577.302 291.935 577.302 298.788 538.091 304.343 489.722 304.343 441.352 304.343 402.141 298.788 402.141 291.935Z" fill="#C0C0C0" fill-opacity="0.2" transform="matrix(1.00024 0 0 1 -104.114 -151.442)"/><path d="M397.032 286.827C397.032 279.974 436.244 274.419 484.613 274.419 532.982 274.419 572.194 279.974 572.194 286.827 572.194 293.679 532.982 299.234 484.613 299.234 436.244 299.234 397.032 293.679 397.032 286.827Z" fill="#FFE6D8" transform="matrix(1.00024 0 0 1 -104.114 -151.442)"/><path d="M397.032 286.827C397.032 279.974 436.244 274.419 484.613 274.419 532.982 274.419 572.194 279.974 572.194 286.827 572.194 293.679 532.982 299.234 484.613 299.234 436.244 299.234 397.032 293.679 397.032 286.827Z" stroke="#000000" stroke-width="0.729839" stroke-miterlimit="10" fill="none" transform="matrix(1.00024 0 0 1 -104.114 -151.442)"/><text font-family="Arial,Arial_MSFontService,sans-serif" font-weight="700" font-size="13" transform="matrix(0.730013 0 0 0.729839 321.849 139)">Realizar pago con tarjeta</text><path d="M572.923 289.016 612.335 289.746" stroke="#000000" stroke-width="0.729839" stroke-miterlimit="10" fill="none" transform="matrix(1.00024 0 0 1 -104.114 -151.442)"/><path d="M604.862 292.681 612.335 289.746 604.976 286.537" stroke="#000000" stroke-width="0.729839" stroke-miterlimit="10" fill="none" transform="matrix(1.00024 0 0 1 -104.114 -151.442)"/><path d="M159.105 313.101 396.302 294.125" stroke="#000000" stroke-width="0.729839" stroke-miterlimit="10" fill="none" transform="matrix(1.00024 0 0 1 -104.114 -151.442)"/><path d="M431.335 362C431.335 355.148 463.357 349.593 502.859 349.593 542.361 349.593 574.383 355.148 574.383 362 574.383 368.852 542.361 374.407 502.859 374.407 463.357 374.407 431.335 368.852 431.335 362Z" fill="#C0C0C0" fill-opacity="0.2" transform="matrix(1.00024 0 0 1 -104.114 -151.442)"/><path d="M426.226 356.891C426.226 350.039 458.248 344.484 497.75 344.484 537.252 344.484 569.274 350.039 569.274 356.891 569.274 363.744 537.252 369.298 497.75 369.298 458.248 369.298 426.226 363.744 426.226 356.891Z" fill="#FFE6D8" transform="matrix(1.00024 0 0 1 -104.114 -151.442)"/><path d="M426.226 356.891C426.226 350.039 458.248 344.484 497.75 344.484 537.252 344.484 569.274 350.039 569.274 356.891 569.274 363.744 537.252 369.298 497.75 369.298 458.248 369.298 426.226 363.744 426.226 356.891Z" stroke="#000000" stroke-width="0.729839" stroke-miterlimit="10" fill="none" transform="matrix(1.00024 0 0 1 -104.114 -151.442)"/><text font-family="Arial,Arial_MSFontService,sans-serif" font-weight="700" font-size="13" transform="matrix(0.730013 0 0 0.729839 346.304 209)">Ver órdenes creadas</text><path d="M489.722 391.194C489.722 384.341 508.184 378.786 530.958 378.786 553.732 378.786 572.194 384.341 572.194 391.194 572.194 398.046 553.732 403.601 530.958 403.601 508.184 403.601 489.722 398.046 489.722 391.194Z" fill="#C0C0C0" fill-opacity="0.2" transform="matrix(1.00024 0 0 1 -104.114 -151.442)"/><path d="M484.613 386.085C484.613 379.232 503.075 373.677 525.849 373.677 548.623 373.677 567.085 379.232 567.085 386.085 567.085 392.937 548.623 398.492 525.849 398.492 503.075 398.492 484.613 392.937 484.613 386.085Z" fill="#F3FFD8" transform="matrix(1.00024 0 0 1 -104.114 -151.442)"/><path d="M484.613 386.085C484.613 379.232 503.075 373.677 525.849 373.677 548.623 373.677 567.085 379.232 567.085 386.085 567.085 392.937 548.623 398.492 525.849 398.492 503.075 398.492 484.613 392.937 484.613 386.085Z" stroke="#000000" stroke-width="0.729839" stroke-miterlimit="10" fill="none" transform="matrix(1.00024 0 0 1 -104.114 -151.442)"/><text font-family="Arial,Arial_MSFontService,sans-serif" font-weight="700" font-size="13" transform="matrix(0.730013 0 0 0.729839 395.945 239)">Ver boletos</text><path d="M466.367 420.387C466.367 413.535 490.874 407.98 521.105 407.98 551.336 407.98 575.843 413.535 575.843 420.387 575.843 427.24 551.336 432.794 521.105 432.794 490.874 432.794 466.367 427.24 466.367 420.387Z" fill="#C0C0C0" fill-opacity="0.2" transform="matrix(1.00024 0 0 1 -104.114 -151.442)"/><path d="M461.258 415.278C461.258 408.426 485.765 402.871 515.996 402.871 546.227 402.871 570.734 408.426 570.734 415.278 570.734 422.131 546.227 427.685 515.996 427.685 485.765 427.685 461.258 422.131 461.258 415.278Z" fill="#F3FFD8" transform="matrix(1.00024 0 0 1 -104.114 -151.442)"/><path d="M461.258 415.278C461.258 408.426 485.765 402.871 515.996 402.871 546.227 402.871 570.734 408.426 570.734 415.278 570.734 422.131 546.227 427.685 515.996 427.685 485.765 427.685 461.258 422.131 461.258 415.278Z" stroke="#000000" stroke-width="0.729839" stroke-miterlimit="10" fill="none" transform="matrix(1.00024 0 0 1 -104.114 -151.442)"/><text font-family="Arial,Arial_MSFontService,sans-serif" font-weight="700" font-size="13" transform="matrix(0.730013 0 0 0.729839 376.6 268)">Verificar boleto</text><path d="M159.105 317.48 425.496 348.133" stroke="#000000" stroke-width="0.729839" stroke-miterlimit="10" fill="none" transform="matrix(1.00024 0 0 1 -104.114 -151.442)"/><path d="M159.105 318.94 483.883 378.786" stroke="#000000" stroke-width="0.729839" stroke-miterlimit="10" fill="none" transform="matrix(1.00024 0 0 1 -104.114 -151.442)"/><path d="M159.105 320.399 466.367 402.141" stroke="#000000" stroke-width="0.729839" stroke-miterlimit="10" fill="none" transform="matrix(1.00024 0 0 1 -104.114 -151.442)"/><path d="M343.754 408.71C343.754 401.857 363.36 396.302 387.544 396.302 411.729 396.302 431.335 401.857 431.335 408.71 431.335 415.562 411.729 421.117 387.544 421.117 363.36 421.117 343.754 415.562 343.754 408.71Z" fill="#C0C0C0" fill-opacity="0.2" transform="matrix(1.00024 0 0 1 -104.114 -151.442)"/><path d="M338.645 403.601C338.645 396.748 358.251 391.194 382.435 391.194 406.62 391.194 426.226 396.748 426.226 403.601 426.226 410.453 406.62 416.008 382.435 416.008 358.251 416.008 338.645 410.453 338.645 403.601Z" fill="#D8E5FF" transform="matrix(1.00024 0 0 1 -104.114 -151.442)"/><path d="M338.645 403.601C338.645 396.748 358.251 391.194 382.435 391.194 406.62 391.194 426.226 396.748 426.226 403.601 426.226 410.453 406.62 416.008 382.435 416.008 358.251 416.008 338.645 410.453 338.645 403.601Z" stroke="#000000" stroke-width="0.729839" stroke-miterlimit="10" fill="none" transform="matrix(1.00024 0 0 1 -104.114 -151.442)"/><text font-family="Arial,Arial_MSFontService,sans-serif" font-weight="700" font-size="13" transform="matrix(0.730013 0 0 0.729839 250.672 256)">Ver músicos</text><path d="M320.399 449.581C320.399 442.728 357.65 437.173 403.601 437.173 449.551 437.173 486.802 442.728 486.802 449.581 486.802 456.433 449.551 461.988 403.601 461.988 357.65 461.988 320.399 456.433 320.399 449.581Z" fill="#C0C0C0" fill-opacity="0.2" transform="matrix(1.00024 0 0 1 -104.114 -151.442)"/><path d="M315.29 444.472C315.29 437.619 352.541 432.065 398.492 432.065 444.443 432.065 481.694 437.619 481.694 444.472 481.694 451.324 444.443 456.879 398.492 456.879 352.541 456.879 315.29 451.324 315.29 444.472Z" fill="#D8F2FF" transform="matrix(1.00024 0 0 1 -104.114 -151.442)"/><path d="M315.29 444.472C315.29 437.619 352.541 432.065 398.492 432.065 444.443 432.065 481.694 437.619 481.694 444.472 481.694 451.324 444.443 456.879 398.492 456.879 352.541 456.879 315.29 451.324 315.29 444.472Z" stroke="#000000" stroke-width="0.729839" stroke-miterlimit="10" fill="none" transform="matrix(1.00024 0 0 1 -104.114 -151.442)"/><text font-family="Arial,Arial_MSFontService,sans-serif" font-weight="700" font-size="13" transform="matrix(0.730013 0 0 0.729839 238.992 297)">Ver contenido exclusivo</text><path d="M209.464 449.581C209.464 442.728 232.337 437.173 260.552 437.173 288.768 437.173 311.641 442.728 311.641 449.581 311.641 456.433 288.768 461.988 260.552 461.988 232.337 461.988 209.464 456.433 209.464 449.581Z" fill="#C0C0C0" fill-opacity="0.2" transform="matrix(1.00024 0 0 1 -104.114 -151.442)"/><path d="M204.355 444.472C204.355 437.619 227.228 432.065 255.444 432.065 283.659 432.065 306.532 437.619 306.532 444.472 306.532 451.324 283.659 456.879 255.444 456.879 227.228 456.879 204.355 451.324 204.355 444.472Z" fill="#D8FFF6" transform="matrix(1.00024 0 0 1 -104.114 -151.442)"/><path d="M204.355 444.472C204.355 437.619 227.228 432.065 255.444 432.065 283.659 432.065 306.532 437.619 306.532 444.472 306.532 451.324 283.659 456.879 255.444 456.879 227.228 456.879 204.355 451.324 204.355 444.472Z" stroke="#000000" stroke-width="0.729839" stroke-miterlimit="10" fill="none" transform="matrix(1.00024 0 0 1 -104.114 -151.442)"/><text font-family="Arial,Arial_MSFontService,sans-serif" font-weight="700" font-size="13" transform="matrix(0.730013 0 0 0.729839 118.54 297)">Ver conciertos</text><path d="M159.105 322.589 345.944 390.464" stroke="#000000" stroke-width="0.729839" stroke-miterlimit="10" fill="none" transform="matrix(1.00024 0 0 1 -104.114 -151.442)"/><path d="M159.105 325.508 372.218 431.335" stroke="#000000" stroke-width="0.729839" stroke-miterlimit="10" fill="none" transform="matrix(1.00024 0 0 1 -104.114 -151.442)"/><path d="M159.105 338.645 243.766 431.335" stroke="#000000" stroke-width="0.729839" stroke-miterlimit="10" fill="none" transform="matrix(1.00024 0 0 1 -104.114 -151.442)"/><path d="M221.141 531.323C221.141 524.47 268.685 518.915 327.333 518.915 385.98 518.915 433.524 524.47 433.524 531.323 433.524 538.175 385.98 543.73 327.333 543.73 268.685 543.73 221.141 538.175 221.141 531.323Z" fill="#C0C0C0" fill-opacity="0.2" transform="matrix(1.00024 0 0 1 -104.114 -151.442)"/><path d="M216.032 526.214C216.032 519.361 263.576 513.806 322.224 513.806 380.871 513.806 428.415 519.361 428.415 526.214 428.415 533.066 380.871 538.621 322.224 538.621 263.576 538.621 216.032 533.066 216.032 526.214Z" fill="#FFD8D8" transform="matrix(1.00024 0 0 1 -104.114 -151.442)"/><path d="M216.032 526.214C216.032 519.361 263.576 513.806 322.224 513.806 380.871 513.806 428.415 519.361 428.415 526.214 428.415 533.066 380.871 538.621 322.224 538.621 263.576 538.621 216.032 533.066 216.032 526.214Z" stroke="#000000" stroke-width="0.729839" stroke-miterlimit="10" fill="none" transform="matrix(1.00024 0 0 1 -104.114 -151.442)"/><text font-family="Arial,Arial_MSFontService,sans-serif" font-weight="700" font-size="13" transform="matrix(0.730013 0 0 0.729839 146.28 379)">Asignar estatus de colaborador</text><path d="M320.399 560.516C320.399 553.664 375.622 548.109 443.742 548.109 511.862 548.109 567.085 553.664 567.085 560.516 567.085 567.369 511.862 572.923 443.742 572.923 375.622 572.923 320.399 567.369 320.399 560.516Z" fill="#C0C0C0" fill-opacity="0.2" transform="matrix(1.00024 0 0 1 -104.114 -151.442)"/><path d="M315.29 555.407C315.29 548.555 370.513 543 438.633 543 506.753 543 561.976 548.555 561.976 555.407 561.976 562.26 506.753 567.815 438.633 567.815 370.513 567.815 315.29 562.26 315.29 555.407Z" fill="#FFF2D8" transform="matrix(1.00024 0 0 1 -104.114 -151.442)"/><path d="M315.29 555.407C315.29 548.555 370.513 543 438.633 543 506.753 543 561.976 548.555 561.976 555.407 561.976 562.26 506.753 567.815 438.633 567.815 370.513 567.815 315.29 562.26 315.29 555.407Z" stroke="#000000" stroke-width="0.729839" stroke-miterlimit="10" fill="none" transform="matrix(1.00024 0 0 1 -104.114 -151.442)"/><text font-family="Arial,Arial_MSFontService,sans-serif" font-weight="700" font-size="13" transform="matrix(0.730013 0 0 0.729839 250.672 408)">Inicio de sesión como administrador</text><path d="M291.206 589.71C291.206 582.857 353.617 577.302 430.605 577.302 507.593 577.302 570.004 582.857 570.004 589.71 570.004 596.562 507.593 602.117 430.605 602.117 353.617 602.117 291.206 596.562 291.206 589.71Z" fill="#C0C0C0" fill-opacity="0.2" transform="matrix(1.00024 0 0 1 -104.114 -151.442)"/><path d="M286.097 584.601C286.097 577.748 348.508 572.194 425.496 572.194 502.484 572.194 564.895 577.748 564.895 584.601 564.895 591.453 502.484 597.008 425.496 597.008 348.508 597.008 286.097 591.453 286.097 584.601Z" fill="#FFF2D8" transform="matrix(1.00024 0 0 1 -104.114 -151.442)"/><path d="M286.097 584.601C286.097 577.748 348.508 572.194 425.496 572.194 502.484 572.194 564.895 577.748 564.895 584.601 564.895 591.453 502.484 597.008 425.496 597.008 348.508 597.008 286.097 591.453 286.097 584.601Z" stroke="#000000" stroke-width="0.729839" stroke-miterlimit="10" fill="none" transform="matrix(1.00024 0 0 1 -104.114 -151.442)"/><text font-family="Arial,Arial_MSFontService,sans-serif" font-weight="700" font-size="13" transform="matrix(0.730013 0 0 0.729839 226.217 437)">Restablecer contraseña de administrador</text><path d="M159.835 590.44 289.016 539.351" stroke="#000000" stroke-width="0.729839" stroke-miterlimit="10" fill="none" transform="matrix(1.00024 0 0 1 -104.114 -151.442)"/><path d="M159.835 597.008 350.323 568.544" stroke="#000000" stroke-width="0.729839" stroke-miterlimit="10" fill="none" transform="matrix(1.00024 0 0 1 -104.114 -151.442)"/><path d="M159.835 599.198 285.367 592.629" stroke="#000000" stroke-width="0.729839" stroke-miterlimit="10" fill="none" transform="matrix(1.00024 0 0 1 -104.114 -151.442)"/><path d="M378.786 618.903C378.786 612.051 421.756 606.496 474.76 606.496 527.765 606.496 570.734 612.051 570.734 618.903 570.734 625.756 527.765 631.31 474.76 631.31 421.756 631.31 378.786 625.756 378.786 618.903Z" fill="#C0C0C0" fill-opacity="0.2" transform="matrix(1.00024 0 0 1 -104.114 -151.442)"/><path d="M373.677 613.794C373.677 606.942 416.647 601.387 469.651 601.387 522.656 601.387 565.625 606.942 565.625 613.794 565.625 620.647 522.656 626.202 469.651 626.202 416.647 626.202 373.677 620.647 373.677 613.794Z" fill="#FFE6D8" transform="matrix(1.00024 0 0 1 -104.114 -151.442)"/><path d="M373.677 613.794C373.677 606.942 416.647 601.387 469.651 601.387 522.656 601.387 565.625 606.942 565.625 613.794 565.625 620.647 522.656 626.202 469.651 626.202 416.647 626.202 373.677 620.647 373.677 613.794Z" stroke="#000000" stroke-width="0.729839" stroke-miterlimit="10" fill="none" transform="matrix(1.00024 0 0 1 -104.114 -151.442)"/><text font-family="Arial,Arial_MSFontService,sans-serif" font-weight="700" font-size="13" transform="matrix(0.730013 0 0 0.729839 301.043 466)">Cambiar estatus de órdenes</text><path d="M159.835 601.387 372.948 610.145" stroke="#000000" stroke-width="0.729839" stroke-miterlimit="10" fill="none" transform="matrix(1.00024 0 0 1 -104.114 -151.442)"/><path d="M466.367 648.097C466.367 641.244 490.22 635.69 519.645 635.69 549.07 635.69 572.923 641.244 572.923 648.097 572.923 654.949 549.07 660.504 519.645 660.504 490.22 660.504 466.367 654.949 466.367 648.097Z" fill="#C0C0C0" fill-opacity="0.2" transform="matrix(1.00024 0 0 1 -104.114 -151.442)"/><path d="M461.258 642.988C461.258 636.135 485.111 630.581 514.536 630.581 543.961 630.581 567.815 636.135 567.815 642.988 567.815 649.84 543.961 655.395 514.536 655.395 485.111 655.395 461.258 649.84 461.258 642.988Z" fill="#D8FFD8" transform="matrix(1.00024 0 0 1 -104.114 -151.442)"/><path d="M461.258 642.988C461.258 636.135 485.111 630.581 514.536 630.581 543.961 630.581 567.815 636.135 567.815 642.988 567.815 649.84 543.961 655.395 514.536 655.395 485.111 655.395 461.258 649.84 461.258 642.988Z" stroke="#000000" stroke-width="0.729839" stroke-miterlimit="10" fill="none" transform="matrix(1.00024 0 0 1 -104.114 -151.442)"/><text font-family="Arial,Arial_MSFontService,sans-serif" font-weight="700" font-size="13" transform="matrix(0.730013 0 0 0.729839 376.235 496)">Actualizar tasa</text><path d="M159.835 603.577 460.528 637.149" stroke="#000000" stroke-width="0.729839" stroke-miterlimit="10" fill="none" transform="matrix(1.00024 0 0 1 -104.114 -151.442)"/><path d="M378.786 677.29C378.786 670.438 422.409 664.883 476.22 664.883 530.031 664.883 573.653 670.438 573.653 677.29 573.653 684.143 530.031 689.698 476.22 689.698 422.409 689.698 378.786 684.143 378.786 677.29Z" fill="#C0C0C0" fill-opacity="0.2" transform="matrix(1.00024 0 0 1 -104.114 -151.442)"/><path d="M373.677 672.181C373.677 665.329 417.3 659.774 471.111 659.774 524.922 659.774 568.544 665.329 568.544 672.181 568.544 679.034 524.922 684.589 471.111 684.589 417.3 684.589 373.677 679.034 373.677 672.181Z" fill="#FFD8FF" transform="matrix(1.00024 0 0 1 -104.114 -151.442)"/><path d="M373.677 672.181C373.677 665.329 417.3 659.774 471.111 659.774 524.922 659.774 568.544 665.329 568.544 672.181 568.544 679.034 524.922 684.589 471.111 684.589 417.3 684.589 373.677 679.034 373.677 672.181Z" stroke="#000000" stroke-width="0.729839" stroke-miterlimit="10" fill="none" transform="matrix(1.00024 0 0 1 -104.114 -151.442)"/><text font-family="Arial,Arial_MSFontService,sans-serif" font-weight="700" font-size="13" transform="matrix(0.730013 0 0 0.729839 301.408 525)">Gestionar cuentas bancarias</text><path d="M384.625 706.484C384.625 699.631 413.543 694.077 449.216 694.077 484.888 694.077 513.806 699.631 513.806 706.484 513.806 713.336 484.888 718.891 449.216 718.891 413.543 718.891 384.625 713.336 384.625 706.484Z" fill="#C0C0C0" fill-opacity="0.2" transform="matrix(1.00024 0 0 1 -104.114 -151.442)"/><path d="M379.516 701.375C379.516 694.523 408.435 688.968 444.107 688.968 479.779 688.968 508.698 694.523 508.698 701.375 508.698 708.227 479.779 713.782 444.107 713.782 408.435 713.782 379.516 708.227 379.516 701.375Z" fill="#D8E5FF" transform="matrix(1.00024 0 0 1 -104.114 -151.442)"/><path d="M379.516 701.375C379.516 694.523 408.435 688.968 444.107 688.968 479.779 688.968 508.698 694.523 508.698 701.375 508.698 708.227 479.779 713.782 444.107 713.782 408.435 713.782 379.516 708.227 379.516 701.375Z" stroke="#000000" stroke-width="0.729839" stroke-miterlimit="10" fill="none" transform="matrix(1.00024 0 0 1 -104.114 -151.442)"/><text font-family="Arial,Arial_MSFontService,sans-serif" font-weight="700" font-size="13" transform="matrix(0.730013 0 0 0.729839 297.758 554)">Gestionar músicos</text><path d="M332.077 735.677C332.077 728.825 378.477 723.27 435.714 723.27 492.951 723.27 539.351 728.825 539.351 735.677 539.351 742.531 492.951 748.085 435.714 748.085 378.477 748.085 332.077 742.531 332.077 735.677Z" fill="#C0C0C0" fill-opacity="0.2" transform="matrix(1.00024 0 0 1 -104.114 -151.442)"/><path d="M326.968 730.569C326.968 723.716 373.368 718.161 430.605 718.161 487.842 718.161 534.242 723.716 534.242 730.569 534.242 737.422 487.842 742.976 430.605 742.976 373.368 742.976 326.968 737.422 326.968 730.569Z" fill="#D8F2FF" transform="matrix(1.00024 0 0 1 -104.114 -151.442)"/><path d="M326.968 730.569C326.968 723.716 373.368 718.161 430.605 718.161 487.842 718.161 534.242 723.716 534.242 730.569 534.242 737.422 487.842 742.976 430.605 742.976 373.368 742.976 326.968 737.422 326.968 730.569Z" stroke="#000000" stroke-width="0.729839" stroke-miterlimit="10" fill="none" transform="matrix(1.00024 0 0 1 -104.114 -151.442)"/><text font-family="Arial,Arial_MSFontService,sans-serif" font-weight="700" font-size="13" transform="matrix(0.730013 0 0 0.729839 256.512 583)">Gestionar contenido exclusivo</text><path d="M159.835 605.766 409.44 659.044" stroke="#000000" stroke-width="0.729839" stroke-miterlimit="10" fill="none" transform="matrix(1.00024 0 0 1 -104.114 -151.442)"/><path d="M159.835 608.685 403.601 688.238" stroke="#000000" stroke-width="0.729839" stroke-miterlimit="10" fill="none" transform="matrix(1.00024 0 0 1 -104.114 -151.442)"/><path d="M159.835 611.605 400.681 717.431" stroke="#000000" stroke-width="0.729839" stroke-miterlimit="10" fill="none" transform="matrix(1.00024 0 0 1 -104.114 -151.442)"/><path d="M209.464 718.161C209.464 711.309 241.486 705.754 280.988 705.754 320.49 705.754 352.512 711.309 352.512 718.161 352.512 725.014 320.49 730.569 280.988 730.569 241.486 730.569 209.464 725.014 209.464 718.161Z" fill="#C0C0C0" fill-opacity="0.2" transform="matrix(1.00024 0 0 1 -104.114 -151.442)"/><path d="M204.355 713.052C204.355 706.2 236.377 700.645 275.879 700.645 315.381 700.645 347.403 706.2 347.403 713.052 347.403 719.905 315.381 725.46 275.879 725.46 236.377 725.46 204.355 719.905 204.355 713.052Z" fill="#D8FFF6" transform="matrix(1.00024 0 0 1 -104.114 -151.442)"/><path d="M204.355 713.052C204.355 706.2 236.377 700.645 275.879 700.645 315.381 700.645 347.403 706.2 347.403 713.052 347.403 719.905 315.381 725.46 275.879 725.46 236.377 725.46 204.355 719.905 204.355 713.052Z" stroke="#000000" stroke-width="0.729839" stroke-miterlimit="10" fill="none" transform="matrix(1.00024 0 0 1 -104.114 -151.442)"/><text font-family="Arial,Arial_MSFontService,sans-serif" font-weight="700" font-size="13" transform="matrix(0.730013 0 0 0.729839 124.38 566)">Gestionar conciertos</text><path d="M160.076 613.757 259.093 699.915" stroke="#000000" stroke-width="0.729839" stroke-miterlimit="10" fill="none" transform="matrix(1.00024 0 0 1 -104.114 -151.442)"/><path d="M226.98 805.742C226.98 798.889 270.112 793.335 323.319 793.335 376.525 793.335 419.657 798.889 419.657 805.742 419.657 812.595 376.525 818.149 323.319 818.149 270.112 818.149 226.98 812.595 226.98 805.742Z" fill="#C0C0C0" fill-opacity="0.2" transform="matrix(1.00024 0 0 1 -104.114 -151.442)"/><path d="M221.871 800.633C221.871 793.78 265.003 788.226 318.21 788.226 371.416 788.226 414.548 793.78 414.548 800.633 414.548 807.486 371.416 813.04 318.21 813.04 265.003 813.04 221.871 807.486 221.871 800.633Z" fill="#FFF2D8" transform="matrix(1.00024 0 0 1 -104.114 -151.442)"/><path d="M221.871 800.633C221.871 793.78 265.003 788.226 318.21 788.226 371.416 788.226 414.548 793.78 414.548 800.633 414.548 807.486 371.416 813.04 318.21 813.04 265.003 813.04 221.871 807.486 221.871 800.633Z" stroke="#000000" stroke-width="0.729839" stroke-miterlimit="10" fill="none" transform="matrix(1.00024 0 0 1 -104.114 -151.442)"/><text font-family="Arial,Arial_MSFontService,sans-serif" font-weight="700" font-size="13" transform="matrix(0.730013 0 0 0.729839 149.201 653)">Crear usuario administrador</text><path d="M291.206 834.935C291.206 828.082 318.653 822.528 352.512 822.528 386.371 822.528 413.819 828.082 413.819 834.935 413.819 841.789 386.371 847.343 352.512 847.343 318.653 847.343 291.206 841.789 291.206 834.935Z" fill="#C0C0C0" fill-opacity="0.2" transform="matrix(1.00024 0 0 1 -104.114 -151.442)"/><path d="M286.097 829.827C286.097 822.973 313.545 817.419 347.403 817.419 381.262 817.419 408.71 822.973 408.71 829.827 408.71 836.68 381.262 842.234 347.403 842.234 313.545 842.234 286.097 836.68 286.097 829.827Z" fill="#D8D8FF" transform="matrix(1.00024 0 0 1 -104.114 -151.442)"/><path d="M286.097 829.827C286.097 822.973 313.545 817.419 347.403 817.419 381.262 817.419 408.71 822.973 408.71 829.827 408.71 836.68 381.262 842.234 347.403 842.234 313.545 842.234 286.097 836.68 286.097 829.827Z" stroke="#000000" stroke-width="0.729839" stroke-miterlimit="10" fill="none" transform="matrix(1.00024 0 0 1 -104.114 -151.442)"/><text font-family="Arial,Arial_MSFontService,sans-serif" font-weight="700" font-size="13" transform="matrix(0.730013 0 0 0.729839 203.221 682)">Gestionar bancos</text><path d="M170.052 807.202 221.141 805.012" stroke="#000000" stroke-width="0.729839" stroke-miterlimit="10" fill="none" transform="matrix(1.00024 0 0 1 -104.114 -151.442)"/><path d="M170.052 815.23 285.367 824.718" stroke="#000000" stroke-width="0.729839" stroke-miterlimit="10" fill="none" transform="matrix(1.00024 0 0 1 -104.114 -151.442)"/></g></svg>